<svg xmlns="http://www.w3.org/2000/svg" viewBox="0 0 533.5 544.3">
  <path fill="#4285F4" d="M533.5 278.4c0-17.4-1.5-34-4.4-50.2H272v95h147.5c-6.4 34.5-25.5 63.7-54.5 83.2v68h87.7c51.2-47.1 80.8-116.5 80.8-196z"/>
  <path fill="#34A853" d="M272 544.3c73.8 0 135.8-24.5 181.1-66.9l-87.7-68c-24.4 16.4-55.7 26-93.4 26-71.9 0-132.8-48.5-154.6-113.6H27.6v71.5C72.9 479 164.6 544.3 272 544.3z"/>
  <path fill="#FBBC05" d="M117.4 321.8c-10.8-32.5-10.8-67.6 0-100.1V150.2H27.6C-9.2 224.6-9.2 319 27.6 393.5l89.8-71.7z"/>
  <path fill="#EA4335" d="M272 107.7c40.1 0 76 13.8 104.3 40.8l78.1-78.1C407.8 24.7 345.8 0 272 0 164.6 0 72.9 65.3 27.6 150.2l89.8 71.5C139.2 156.3 200.1 107.7 272 107.7z"/>
</svg>

